<svg xmlns="http://www.w3.org/2000/svg" width="50" height="42" viewBox="0 0 50 42" fill="none">




<path d="M45.6776 0H8.80763C5.94872 0 4.11804 3.02386 5.45581 5.5377L9.1438 12.4858H2.45791C2.0345 12.4859 1.6183 12.5949 1.24962 12.802C0.880939 13.0092 0.572279 13.3075 0.353533 13.6682C0.134787 14.0289 0.0133699 14.4397 0.00104248 14.8608C-0.0112849 15.2818 0.0858942 15.699 0.283168 16.0717L12.1456 38.4098C12.3548 38.8027 12.6675 39.1314 13.0504 39.3607C13.4332 39.59 13.8716 39.7112 14.3184 39.7112C14.7652 39.7112 15.2036 39.59 15.5864 39.3607C15.9693 39.1314 16.2821 38.8027 16.4912 38.4098L19.7129 32.3758L23.7548 39.9889C25.1773 42.6666 29.0309 42.6715 30.4584 39.9968L48.9387 5.39744C50.245 2.9503 48.4626 0 45.6776 0ZM29.1157 14.7829L21.1472 29.7051C21.008 29.9663 20.7998 30.1849 20.5451 30.3374C20.2904 30.4898 19.9988 30.5703 19.7015 30.5703C19.4043 30.5703 19.1127 30.4898 18.858 30.3374C18.6032 30.1849 18.3951 29.9663 18.2558 29.7051L10.3643 14.8457C10.2324 14.5979 10.167 14.3205 10.1745 14.0402C10.182 13.76 10.2621 13.4864 10.4071 13.246C10.552 13.0056 10.7569 12.8065 11.0019 12.668C11.2469 12.5295 11.5237 12.4562 11.8055 12.4554H27.7099C27.9846 12.4554 28.2547 12.5262 28.4938 12.6608C28.733 12.7954 28.933 12.9892 29.0745 13.2235C29.216 13.4578 29.2942 13.7246 29.3014 13.9978C29.3086 14.2711 29.2446 14.5415 29.1157 14.7829Z" fill="#F71963"/>
</svg>